<svg version="1" xmlns="http://www.w3.org/2000/svg" width="556" height="556" viewBox="0 0 417.000000 417.000000"><path d="M44 123.8c-.6.2-1 12.4-1 33.5v33.2l-5.8 4.7c-3.1 2.6-7 5.9-8.7 7.4-1.6 1.4-4.1 3.5-5.4 4.5-2.4 1.9-2.4 2-.5 3.7 3.1 2.8 9.6 8.4 15.2 13.1l5.2 4.4v66.6l19 .1h19l.1-5.2c0-2.9.2-6.5.3-8.1.2-3 1-2.8-12.1-2.8H62v-57.7l-3.2-2.5c-1.8-1.4-5-4-7.1-5.9l-3.9-3.5 6.2-5.4c3.4-3 6.6-5.6 7.1-5.7.5-.2.9-12.4.9-29.3V140l2.8-.1c1.5-.1 5.7-.1 9.5-.1 6.2 0 6.7-.1 6.8-2.1.2-4.3-.3-13.2-.7-13.6-.4-.5-35-.7-36.4-.3zM336.2 124.5c-.6.8-.7 6.6-.3 13.7.1 1.5 1.3 1.7 8.4 1.6 4.5 0 8.9 0 9.8.1 1.4.1 1.6 3.4 1.6 28.7v28.6l6.7 6.1 6.8 6.2-5.7 4.9c-3.1 2.6-6.1 6-6.7 7.5-.7 1.6-1.1 13-1.1 29.7v27.2l-9.8-.2c-6 0-9.9.3-10 .9-.1 1.4-.1 11.7 0 13.7.1 1.6 1.8 1.8 19.1 1.7 18.8-.1 19-.1 19.1-2.2 0-1.2.1-16.2.1-33.4v-31.1l2.7-2.3c1.4-1.3 6-5.2 10.1-8.7 4.1-3.6 7.8-6.8 8.3-7.2.4-.3-4.1-4.9-10.1-10.1l-10.9-9.4v-32.8c0-18-.3-33-.6-33.4-1.1-1-36.8-.9-37.5.2zM287.2 125c-.4.3-2.5 2.7-4.7 5.5-2.2 2.7-6 7.5-8.6 10.5-2.5 3-10.8 13.1-18.3 22.5-7.6 9.3-14.6 18-15.7 19.2-1 1.3-5.6 6.9-10.1 12.5-4.6 5.7-8.5 10.5-8.8 10.8-.3.3-2.5 3-5 6s-4.7 5.7-5 6c-.3.3-3.2 3.9-6.5 8-5.5 6.8-22.4 27.7-26.4 32.5-.9 1.1-3.6 4.5-6.1 7.5-2.5 3-4.7 5.7-5 6-1.8 1.8-17 21-17 21.4 0 .3 4.6.6 10.3.6h10.2l22.8-28.6 22.8-28.5 2.2 2.8c9.2 12 21 19.4 38.2 23.9 7.6 1.9 10.9 2.3 21 2 6.6-.2 14.5-.9 17.5-1.6 9.3-2 21-8.2 28.4-15.2l6.7-6.3-13.2-7.8-13.2-7.9-2.6 2.1c-11.5 9.4-20.3 12-32.6 9.8-5.9-1-9.3-2.7-14-6.9-10.6-9.2-11.2-27-1.4-38.2 8.4-9.5 20.7-12.4 34.1-8 4.6 1.5 12.2 6.3 14.5 9.1 1 1.3 3.1.2 14.3-7.1l13.1-8.6-2.3-2.8c-5.1-6.3-15.9-13.2-25.1-16.2-2.2-.7-7.2-1.7-11.3-2.4l-7.3-1.1 12.3-15.5c6.9-8.5 12.2-15.7 11.9-16-.6-.7-19.2-.7-20.1 0zM97.1 209.9l-.1 53h34.7l-.1-15.1c-.1-8.2.2-15.4.5-15.9.5-.9 14.7-1.5 15.3-.7.1.1 5.6 7 12.1 15.2 9.7 12.3 12 14.7 12.9 13.4 1.2-1.6 3.6-4.7 13-16.5 6.4-8.1 6.4-7 .3-14.2l-2.9-3.4 3.8-1.6c18.8-7.6 27.2-27.9 18.9-45.4-3.3-7-10.9-14-18.5-16.8-11.1-4.2-17.9-4.8-54.8-4.9H97.1v52.9zm69.5-25c10.1 5.7 8.1 17.9-3.3 21.2-2.9.8-10.2 1.3-18 1.4H132l-.1-3c-.1-4-.1-17.4 0-20.2.1-2.2.3-2.2 15.4-2 13.8.3 15.6.5 19.3 2.6z"/></svg>