<?xml version="1.0" encoding="utf-8"?>
<!-- Generator: Adobe Illustrator 19.0.0, SVG Export Plug-In . SVG Version: 6.00 Build 0)  -->
<svg version="1.1" id="Capa_1" xmlns="http://www.w3.org/2000/svg" xmlns:xlink="http://www.w3.org/1999/xlink" x="0px" y="0px"
	 width="76px" height="41px" viewBox="0 0 76 41" style="enable-background:new 0 0 76 41;" xml:space="preserve">
<style type="text/css">
	.st0{fill:#FFFFFF;}
</style>
<g id="XMLID_2_">
	<path id="XMLID_6_" class="st0" d="M15.5,33.3h7v-7.7h3h0.1l4.9,7.3l4-6l-1.7-2.5c1.1-0.4,2-1,2.8-1.8c0.8-0.7,1.4-1.6,1.8-2.6
		s0.6-2.1,0.7-3.4l0,0c0-1.2-0.2-2.4-0.6-3.3c-0.4-1-0.9-1.8-1.7-2.6c-0.8-0.9-1.9-1.6-3.3-2c-1.4-0.5-3-0.7-4.9-0.7h-12L15.5,33.3
		L15.5,33.3z M22.5,20.1V14h4.6c0.8,0,1.5,0.1,2,0.3c0.6,0.2,1,0.6,1.3,1s0.5,1,0.5,1.7v0.1c0,0.9-0.3,1.7-1,2.2s-1.6,0.8-2.8,0.8
		H22.5L22.5,20.1z"/>
	<path id="XMLID_5_" class="st0" d="M51.3,34.1c1.9,0,3.5-0.3,4.9-0.7c1.4-0.5,2.6-1.2,3.6-2c1-0.9,1.9-1.8,2.7-2.9l-5.3-3.8
		c-0.5,0.6-1,1.2-1.6,1.6c-0.5,0.5-1.2,0.8-1.8,1.1c-0.7,0.3-1.4,0.4-2.3,0.4s-1.7-0.2-2.4-0.5s-1.4-0.8-1.9-1.4s-1-1.3-1.2-2.1
		c-0.3-0.8-0.4-1.7-0.4-2.7V21c0-0.9,0.2-1.8,0.4-2.6c0.1-0.2,0.2-0.5,0.3-0.7l1.1-1.6c0.5-0.6,1.1-1,1.8-1.3s1.6-0.5,2.4-0.5
		s1.5,0.1,2.2,0.4c0.7,0.2,1.3,0.6,1.8,1c0.5,0.4,1.1,1,1.5,1.6l5.3-4.1c-0.7-1-1.6-2-2.6-2.8S57.6,9,56.3,8.5
		c-1-0.3-2.1-0.5-3.3-0.6l5.2-7.7H54L26.1,40.8h4.2L39.6,27c0.3,0.6,0.7,1.2,1.1,1.7c0.8,1.1,1.7,2,2.8,2.8s2.3,1.4,3.6,1.8
		C48.5,33.8,49.8,34.1,51.3,34.1L51.3,34.1z"/>
	<polygon id="XMLID_4_" class="st0" points="63.8,0 69.6,0 71.5,0 71.5,1.9 71.5,16 74.6,19.2 75.9,20.5 74.6,21.8 71.5,25 
		71.5,39.1 71.5,41 69.6,41 63.8,41 63.8,37.2 67.8,37.2 67.8,24.2 68.3,22.9 70.6,20.5 68.3,18.1 67.8,17.6 67.8,16.8 67.8,3.8 
		63.8,3.8 	"/>
	<polygon id="XMLID_3_" class="st0" points="12.3,3.8 8.4,3.8 8.4,16.8 8.4,17.6 7.8,18.1 5.5,20.5 7.8,22.9 8.4,23.4 8.4,24.2 
		8.4,37.2 12.3,37.2 12.3,41 6.5,41 4.6,41 4.6,39.1 4.6,25 1.4,21.8 0.1,20.5 1.4,19.2 4.6,16 4.6,1.9 4.6,0 6.5,0 12.3,0 	"/>
</g>
</svg>
